<svg width="131" height="147" viewBox="0 0 131 147" fill="none" xmlns="http://www.w3.org/2000/svg">
<path fill-rule="evenodd" clip-rule="evenodd" d="M131 4C131 1.79086 129.209 0 127 0H4C1.79086 0 0 1.79086 0 4V127C0 129.209 1.79086 131 4 131H127C129.209 131 131 129.209 131 127V4ZM118 17C118 14.7909 116.209 13 114 13H17C14.7909 13 13 14.7909 13 17V114C13 116.209 14.7909 118 17 118H114C116.209 118 118 116.209 118 114V17Z" fill="white"/>
<path fill-rule="evenodd" clip-rule="evenodd" d="M45.5 65.5C42.8208 68.1792 42.8208 72.5231 45.5 75.2023L56.2977 86L45.5 96.7977C42.8208 99.4769 42.8208 103.821 45.5 106.5C48.1792 109.179 52.5231 109.179 55.2023 106.5L66 95.7023L76.7977 106.5C79.4769 109.179 83.8208 109.179 86.5 106.5C89.1792 103.821 89.1792 99.4769 86.5 96.7977L75.7023 86L86.5 75.2023C89.1792 72.5231 89.1792 68.1792 86.5 65.5C83.8208 62.8208 79.4769 62.8208 76.7977 65.5L66 76.2977L55.2023 65.5C52.5231 62.8208 48.1792 62.8208 45.5 65.5Z" fill="white"/>
<rect x="60" y="137" width="10" height="47" rx="5" transform="rotate(90 60 137)" fill="white"/>
<rect x="118" y="137" width="10" height="47" rx="5" transform="rotate(90 118 137)" fill="white"/>
<circle cx="39.5" cy="39.5" r="20.5" fill="white"/>
<circle cx="91.5" cy="39.5" r="20.5" fill="white"/>
</svg>
